<svg width="1600" height="1000" viewBox="0 0 1600 1000" fill="none" xmlns="http://www.w3.org/2000/svg">
  <rect width="1600" height="1000" fill="#FBF7F2"/>
  <rect width="1600" height="1000" fill="url(#bg)"/>
  <circle cx="1340" cy="160" r="210" fill="#F97316" fill-opacity="0.14"/>
  <circle cx="260" cy="820" r="280" fill="#0EA5E9" fill-opacity="0.12"/>
  <rect x="132" y="146" width="680" height="708" rx="46" fill="#FFFDF9" stroke="#E8DCCF"/>
  <rect x="182" y="198" width="580" height="74" rx="24" fill="#F8FAFC"/>
  <rect x="214" y="226" width="188" height="16" rx="8" fill="#F97316"/>
  <rect x="428" y="226" width="184" height="16" rx="8" fill="#CBD5E1"/>
  <rect x="182" y="308" width="580" height="248" rx="34" fill="#0F172A"/>
  <rect x="206" y="332" width="248" height="18" rx="9" fill="#F8FAFC"/>
  <rect x="206" y="364" width="300" height="12" rx="6" fill="#A5B4FC"/>
  <rect x="206" y="470" width="230" height="56" rx="20" fill="#F97316"/>
  <rect x="456" y="470" width="250" height="56" rx="20" fill="#14B8A6" fill-opacity="0.18" stroke="#14B8A6"/>
  <rect x="182" y="594" width="580" height="210" rx="34" fill="#FFF7ED" stroke="#F3D3B0"/>
  <rect x="214" y="630" width="172" height="16" rx="8" fill="#0F172A"/>
  <rect x="214" y="662" width="232" height="12" rx="6" fill="#64748B"/>
  <rect x="214" y="700" width="514" height="68" rx="24" fill="#FFFFFF" stroke="#E2E8F0"/>
  <rect x="1030" y="210" width="238" height="496" rx="44" fill="#FFFDF9" stroke="#E7D9CA"/>
  <rect x="1050" y="242" width="198" height="390" rx="28" fill="#0F172A"/>
  <rect x="1070" y="272" width="118" height="12" rx="6" fill="#F8FAFC"/>
  <rect x="1070" y="298" width="150" height="10" rx="5" fill="#A5B4FC"/>
  <rect x="1070" y="344" width="156" height="54" rx="18" fill="#F97316"/>
  <rect x="1070" y="420" width="156" height="54" rx="18" fill="#14B8A6"/>
  <rect x="1070" y="496" width="156" height="54" rx="18" fill="#E2E8F0"/>
  <text x="868" y="228" fill="#0F172A" font-family="Arial, sans-serif" font-size="72" font-weight="700">LUNA Commerce + PWA</text>
  <text x="868" y="300" fill="#475569" font-family="Arial, sans-serif" font-size="30">Vende, cobra, coordina pedidos y lleva la experiencia al telefono de tus clientes.</text>
  <text x="868" y="364" fill="#8A6B52" font-family="Arial, sans-serif" font-size="24" letter-spacing="4">ECOMMERCE  ·  PWA  ·  CONVERSION  ·  EXPERIENCIA MODERNA</text>
  <rect x="868" y="436" width="470" height="112" rx="28" fill="#FFFFFF" stroke="#E7D9CA"/>
  <text x="902" y="485" fill="#0F172A" font-family="Arial, sans-serif" font-size="24">Una misma plataforma para tienda online, seguimiento comercial</text>
  <text x="902" y="522" fill="#0F172A" font-family="Arial, sans-serif" font-size="24">y acceso instalable tipo app con presencia corporativa premium.</text>
  <defs>
    <linearGradient id="bg" x1="110" y1="104" x2="1490" y2="930" gradientUnits="userSpaceOnUse">
      <stop stop-color="#FBF7F2"/>
      <stop offset="0.52" stop-color="#F8F1E8"/>
      <stop offset="1" stop-color="#EEE5DA"/>
    </linearGradient>
  </defs>
</svg>
